<?xml version="1.0" encoding="UTF-8" standalone="no"?>
<!-- Created with Inkscape (http://www.inkscape.org/) -->

<svg
   xmlns:dc="http://purl.org/dc/elements/1.1/"
   xmlns:cc="http://creativecommons.org/ns#"
   xmlns:rdf="http://www.w3.org/1999/02/22-rdf-syntax-ns#"
   xmlns:svg="http://www.w3.org/2000/svg"
   xmlns="http://www.w3.org/2000/svg"
   xmlns:sodipodi="http://sodipodi.sourceforge.net/DTD/sodipodi-0.dtd"
   xmlns:inkscape="http://www.inkscape.org/namespaces/inkscape"
   version="1.1"
   id="svg2"
   width="128"
   height="128"
   viewBox="0 0 128 128"
   sodipodi:docname="icon.svg"
   inkscape:version="0.92.5 (2060ec1f9f, 2020-04-08)">
  <metadata
     id="metadata8">
    <rdf:RDF>
      <cc:Work
         rdf:about="">
        <dc:format>image/svg+xml</dc:format>
        <dc:type
           rdf:resource="http://purl.org/dc/dcmitype/StillImage" />
        <dc:title></dc:title>
      </cc:Work>
    </rdf:RDF>
  </metadata>
  <defs
     id="defs6" />
  <sodipodi:namedview
     pagecolor="#ffffff"
     bordercolor="#666666"
     borderopacity="1"
     objecttolerance="10"
     gridtolerance="10"
     guidetolerance="10"
     inkscape:pageopacity="0"
     inkscape:pageshadow="2"
     inkscape:window-width="1848"
     inkscape:window-height="1016"
     id="namedview4"
     showgrid="false"
     inkscape:zoom="1.84375"
     inkscape:cx="64"
     inkscape:cy="64"
     inkscape:window-x="72"
     inkscape:window-y="27"
     inkscape:window-maximized="1"
     inkscape:current-layer="svg2" />
  <path
     inkscape:connector-curvature="0"
     d="m 96.933557,45.448761 c 0.01046,-0.005 0.03025,-0.01677 0.05944,-0.03361 1.670223,-0.980869 1.669733,-3.293749 0,-4.275346 -0.02788,-0.01725 -0.04898,-0.02894 -0.06066,-0.03427 L 65.318248,25.5555 c -0.74457,-0.366188 -1.631143,-0.366188 -2.375457,0 l -31.63938,15.56249 c -0.0026,0.0024 -0.04079,0.02182 -0.101106,0.05519 -0.806315,0.442309 -1.302595,1.26196 -1.289746,2.142916 v 0.005 38.746599 c 0,0.906717 0.533851,1.738043 1.384932,2.156755 L 62.94278,99.78963 c 0,0 2.53e-4,0 2.53e-4,2.31e-4 0.741736,0.352819 1.619054,0.354529 2.362848,0.0044 0.0073,-0.0044 0.01226,-0.0044 0.01226,-0.0044 L 96.963392,84.224164 C 98.01957,83.704794 98.3484,82.509947 98.3484,81.35498 V 68.078599 c 0,-1.295032 -1.034297,-2.425934 -2.401719,-2.509584 -1.498432,-0.09171 -2.743798,1.030015 -2.743798,2.426186 V 80.59196 L 66.70289,93.625377 V 60.318353 Z M 64.130077,30.453541 90.202439,43.277656 64.130077,56.101754 38.057682,43.277656 Z M 35.05756,47.284068 61.557283,60.318263 V 93.62554 L 35.05756,80.591608 Z"
     id="path4"
     style="fill:#338000;stroke-width:0.25011578" />
  <path
     inkscape:connector-curvature="0"
     d="M 114.7928,82.298623 V 43.566529 c 4.44862,-1.078778 7.74518,-4.884505 7.74518,-9.401097 0,-5.352694 -4.62963,-9.707242 -10.3202,-9.707242 -3.02378,0 -5.7476,1.229417 -7.63686,3.184482 L 74.241242,12.790799 c 0.170481,-0.69852 0.260587,-1.425607 0.260587,-2.172317 0,-5.3524555 -4.629679,-9.70700351 -10.320309,-9.70700351 -5.690624,0 -10.320311,4.35454801 -10.320311,9.70700351 0,0.74671 0.09002,1.473797 0.260587,2.172317 l -30.3396,14.851873 c -1.889314,-1.955065 -4.613222,-3.184482 -7.636847,-3.184482 -5.690616,0 -10.3203254,4.354548 -10.3203254,9.707242 0,4.516592 3.2965744,8.322564 7.7452654,9.401097 v 38.732094 c -4.448941,1.07878 -7.7452654,4.884736 -7.7452654,9.401091 0,5.352685 4.6297094,9.706996 10.3203254,9.706996 3.035473,0 5.769149,-1.23909 7.659246,-3.20773 l 30.317201,14.84074 c -0.170482,0.69851 -0.260587,1.42584 -0.260587,2.17231 0,5.35269 4.629687,9.707 10.320311,9.707 5.69063,0 10.320309,-4.35431 10.320309,-9.707 0,-0.74647 -0.09001,-1.4738 -0.260587,-2.17231 L 104.55833,98.199233 c 1.89014,1.968627 4.6238,3.207737 7.65945,3.207737 5.69057,0 10.3202,-4.354571 10.3202,-9.707002 2.6e-4,-4.516609 -3.29631,-8.322565 -7.74518,-9.401345 z m -2.57502,-52.996391 c 2.8508,0 5.17005,2.181767 5.17005,4.8632 0,2.681415 -2.31925,4.862944 -5.17005,4.862944 -2.85105,0 -5.17055,-2.181529 -5.17055,-4.862944 2.5e-4,-2.681433 2.3195,-4.8632 5.17055,-4.8632 z M 64.18152,5.7555381 c 2.850845,0 5.170201,2.1815134 5.170201,4.8629439 0,2.681417 -2.319356,4.862939 -5.170201,4.862939 -2.850842,0 -5.170197,-2.181522 -5.170197,-4.862939 0,-2.6814305 2.319355,-4.8629439 5.170197,-4.8629439 z M 10.974873,34.165432 c 0,-2.681433 2.319355,-4.8632 5.170212,-4.8632 2.850851,0 5.170466,2.181767 5.170466,4.8632 0,2.681415 -2.31936,4.862944 -5.170466,4.862944 -2.851113,0 -5.170212,-2.181529 -5.170212,-4.862944 z m 5.170476,62.397473 c -2.850862,0 -5.170203,-2.181513 -5.170203,-4.862937 0,-2.681441 2.319341,-4.862962 5.170203,-4.862962 2.850842,0 5.170457,2.181521 5.170457,4.862962 0,2.681424 -2.319615,4.862937 -5.170457,4.862937 z M 64.18152,120.07523 c -2.850842,0 -5.170197,-2.18153 -5.170197,-4.86295 0,-2.68143 2.319355,-4.86295 5.170197,-4.86295 2.850845,0 5.170201,2.18152 5.170201,4.86295 0,2.68142 -2.319356,4.86295 -5.170201,4.86295 z m 7.686292,-11.33388 c -1.891115,-1.9851 -4.636131,-3.23607 -7.686292,-3.23607 -3.05016,0 -5.79517,1.25097 -7.686297,3.23607 L 26.195796,93.909338 c 0.176391,-0.7099 0.269865,-1.449579 0.269865,-2.20937 0,-4.516609 -3.296595,-8.322565 -7.74551,-9.401107 V 43.566529 c 4.448915,-1.078533 7.74551,-4.884505 7.74551,-9.401097 0,-0.7707 -0.09627,-1.520803 -0.277586,-2.240137 l 30.307148,-14.83589 c 1.891127,1.985104 4.636137,3.236073 7.686043,3.236073 3.050145,0 5.795171,-1.250969 7.686287,-3.236073 l 30.307067,14.83589 c -0.18126,0.719334 -0.27747,1.469192 -0.27747,2.240137 0,4.516592 3.29659,8.322564 7.74555,9.401097 v 38.732094 c -4.44896,1.078525 -7.74555,4.884507 -7.74555,9.401091 0,0.759799 0.0923,1.499233 0.26976,2.209369 z M 112.21778,96.562905 c -2.85105,0 -5.17055,-2.181513 -5.17055,-4.862937 0,-2.681441 2.31927,-4.862962 5.17055,-4.862962 2.85104,0 5.17005,2.181521 5.17005,4.862962 0,2.681424 -2.31901,4.862937 -5.17005,4.862937 z"
     id="path6"
     style="fill:#71c837;stroke-width:0.24973683" />
</svg>
