<?xml version="1.0" encoding="UTF-8" standalone="no"?>
<!-- Created with Inkscape (http://www.inkscape.org/) -->

<svg
   xmlns:dc="http://purl.org/dc/elements/1.1/"
   xmlns:cc="http://creativecommons.org/ns#"
   xmlns:rdf="http://www.w3.org/1999/02/22-rdf-syntax-ns#"
   xmlns:svg="http://www.w3.org/2000/svg"
   xmlns="http://www.w3.org/2000/svg"
   xmlns:sodipodi="http://sodipodi.sourceforge.net/DTD/sodipodi-0.dtd"
   xmlns:inkscape="http://www.inkscape.org/namespaces/inkscape"
   version="1.1"
   id="svg2"
   width="858"
   height="280"
   viewBox="0 0 858 280"
   sodipodi:docname="logo.svg"
   inkscape:version="0.92.5 (2060ec1f9f, 2020-04-08)">
  <metadata
     id="metadata8">
    <rdf:RDF>
      <cc:Work
         rdf:about="">
        <dc:format>image/svg+xml</dc:format>
        <dc:type
           rdf:resource="http://purl.org/dc/dcmitype/StillImage" />
        <dc:title></dc:title>
      </cc:Work>
    </rdf:RDF>
  </metadata>
  <defs
     id="defs6" />
  <sodipodi:namedview
     pagecolor="#ffffff"
     bordercolor="#666666"
     borderopacity="1"
     objecttolerance="10"
     gridtolerance="10"
     guidetolerance="10"
     inkscape:pageopacity="0"
     inkscape:pageshadow="2"
     inkscape:window-width="1848"
     inkscape:window-height="1016"
     id="namedview4"
     showgrid="false"
     inkscape:zoom="0.43006993"
     inkscape:cx="429"
     inkscape:cy="140"
     inkscape:window-x="72"
     inkscape:window-y="27"
     inkscape:window-maximized="1"
     inkscape:current-layer="svg2" />
  <path
     inkscape:connector-curvature="0"
     d="m 160.65655,117.67612 c 0.017,-0.008 0.0491,-0.0273 0.0964,-0.0545 2.71214,-1.59275 2.71137,-5.34847 0,-6.94241 -0.0452,-0.0281 -0.0796,-0.0468 -0.0985,-0.0556 l -51.3356,-25.250586 c -1.20905,-0.594629 -2.64869,-0.594629 -3.85732,0 L 54.084808,110.64373 c -0.0048,0.004 -0.06626,0.0354 -0.164169,0.0896 -1.309314,0.71822 -2.115181,2.04919 -2.094321,3.4797 v 0.008 62.91761 c 0,1.47235 0.866875,2.82226 2.248882,3.50217 l 51.38635,25.27511 c 0,0 4.1e-4,0 4.1e-4,3.7e-4 1.20445,0.57291 2.62906,0.57567 3.83685,0.008 0.012,-0.006 0.0199,-0.008 0.0199,-0.008 l 51.38628,-25.27577 c 1.71505,-0.84337 2.24902,-2.78358 2.24902,-4.65904 v -21.55853 c 0,-2.1029 -1.67952,-3.93928 -3.89999,-4.07511 -2.43318,-0.14894 -4.45544,1.67256 -4.45544,3.93968 v 20.45493 l -43.03129,21.16424 V 141.82223 Z M 107.3895,93.326535 149.7264,114.15062 107.3895,134.9747 65.052549,114.15062 Z m -47.208621,27.329815 43.030861,21.16521 v 54.08512 L 60.180879,174.74189 Z"
     id="path4"
     style="fill:#338000;stroke-width:0.40614375" />
  <path
     inkscape:connector-curvature="0"
     d="m 189.65679,177.51377 v -62.89406 c 7.22377,-1.75175 12.57681,-7.93157 12.57681,-15.265715 0,-8.691838 -7.51773,-15.762837 -16.75821,-15.762837 -4.91007,0 -9.33307,1.996356 -12.40088,5.171032 L 123.80824,64.64537 c 0.27682,-1.134265 0.42315,-2.31493 0.42315,-3.527448 0,-8.691436 -7.51778,-15.76246 -16.75835,-15.76246 -9.240563,0 -16.758362,7.071024 -16.758362,15.76246 0,1.212518 0.146179,2.393183 0.423145,3.527448 L 41.871686,88.76219 C 38.80378,85.587514 34.380634,83.591158 29.4708,83.591158 c -9.240553,0 -16.75838,7.070999 -16.75838,15.762837 0,7.334145 5.353059,13.514365 12.576939,15.265715 v 62.89406 c -7.224288,1.75175 -12.576939,7.93194 -12.576939,15.2657 0,8.69182 7.517827,15.76246 16.75838,15.76246 4.929073,0 9.368077,-2.01209 12.437261,-5.20878 l 49.229762,24.0987 c -0.27683,1.13427 -0.423145,2.31533 -0.423145,3.52747 0,8.6918 7.517799,15.76244 16.758362,15.76244 9.24057,0 16.75835,-7.07064 16.75835,-15.76244 0,-1.21214 -0.14616,-2.3932 -0.42315,-3.52747 l 49.22958,-24.0983 c 3.06927,3.1967 7.50824,5.20878 12.43757,5.20878 9.24048,0 16.75821,-7.07104 16.75821,-15.76246 4.3e-4,-7.33416 -5.35263,-13.51435 -12.57681,-15.2661 z m -4.1814,-86.056758 c 4.62923,0 8.39528,3.542808 8.39528,7.896983 0,4.354145 -3.76605,7.896565 -8.39528,7.896565 -4.62958,0 -8.39603,-3.54242 -8.39603,-7.896565 3.8e-4,-4.354175 3.76645,-7.896983 8.39603,-7.896983 z M 107.47304,53.221356 c 4.62926,0 8.39548,3.542392 8.39548,7.896566 0,4.35414 -3.76622,7.896547 -8.39548,7.896547 -4.62927,0 -8.395486,-3.542407 -8.395486,-7.896547 0,-4.354174 3.766216,-7.896566 8.395486,-7.896566 z M 21.074862,99.353995 c 0,-4.354175 3.766222,-7.896983 8.395515,-7.896983 4.629277,0 8.395915,3.542808 8.395915,7.896983 0,4.354145 -3.766223,7.896565 -8.395915,7.896565 -4.629699,0 -8.395515,-3.54242 -8.395515,-7.896565 z M 29.4708,200.67644 c -4.629292,0 -8.395491,-3.54241 -8.395491,-7.89657 0,-4.35417 3.766199,-7.89656 8.395491,-7.89656 4.629269,0 8.395908,3.54239 8.395908,7.89656 0,4.35416 -3.766639,7.89657 -8.395908,7.89657 z m 78.00224,38.17984 c -4.62927,0 -8.395486,-3.54241 -8.395486,-7.89657 0,-4.35416 3.766216,-7.89657 8.395486,-7.89657 4.62926,0 8.39548,3.54241 8.39548,7.89657 0,4.35416 -3.76622,7.89657 -8.39548,7.89657 z m 12.48118,-18.4042 c -3.07084,-3.22345 -7.52825,-5.25482 -12.48118,-5.25482 -4.95292,0 -9.410338,2.03137 -12.481192,5.25482 L 45.790944,196.36751 c 0.286432,-1.15275 0.438221,-2.35387 0.438221,-3.58764 0,-7.33416 -5.353091,-13.51435 -12.577339,-15.26571 v -62.89445 c 7.224248,-1.75135 12.577339,-7.93157 12.577339,-15.265715 0,-1.251484 -0.15633,-2.469518 -0.450754,-3.637592 L 94.991848,71.625548 c 3.070854,3.223455 7.528272,5.254816 12.480772,5.254816 4.9529,0 9.41033,-2.031361 12.48117,-5.254816 l 49.21331,24.090855 c -0.29433,1.168074 -0.45056,2.385715 -0.45056,3.637592 0,7.334145 5.35307,13.514365 12.57738,15.265715 v 62.89406 c -7.22431,1.75133 -12.57738,7.93156 -12.57738,15.2657 0,1.23378 0.1499,2.4345 0.43805,3.58762 z m 65.52117,-19.77564 c -4.62958,0 -8.39603,-3.54241 -8.39603,-7.89657 0,-4.35417 3.76608,-7.89656 8.39603,-7.89656 4.62961,0 8.39528,3.54239 8.39528,7.89656 0,4.35416 -3.76567,7.89657 -8.39528,7.89657 z"
     id="path6"
     style="fill:#71c837;stroke-width:0.40552837" />
  <path
     inkscape:connector-curvature="0"
     id="path839"
     style="font-style:normal;font-variant:normal;font-weight:normal;font-stretch:normal;font-size:181.95817566px;line-height:1.25;font-family:Meera;-inkscape-font-specification:Meera;letter-spacing:0px;word-spacing:0px;fill:#aade87;fill-opacity:1;stroke:none;stroke-width:7.7607255"
     d="m 286.90599,157.30964 q 2.48771,4.70888 2.31002,11.99431 -0.17769,7.28544 -3.64272,13.23817 -3.37617,5.95274 -11.72777,12.08316 -8.3516,6.04158 -23.3667,5.6862 -19.01321,-0.26654 -26.83172,-8.61814 -7.72967,-8.44044 -10.12853,-13.94894 l 11.46123,-5.33081 q 1.86578,7.99621 11.28354,13.6824 9.41775,5.6862 21.14553,2.66541 11.81662,-3.10964 15.37049,-8.70699 3.64272,-5.68619 3.73156,-10.66161 0.0888,-4.97542 -2.39886,-8.44044 -2.39886,-3.46503 -6.48581,-5.95273 -3.99811,-2.57656 -9.15122,-4.44234 -5.15311,-1.95463 -10.57277,-3.90926 -5.3308,-2.04348 -10.48391,-4.35349 -5.15312,-2.39886 -11.72778,-7.81852 -6.48581,-5.41965 -6.13042,-17.6805 0.17769,-13.14933 10.66161,-20.7013 10.57276,-7.640822 22.47823,-7.463128 23.01131,0.355387 34.47254,17.236268 l -11.017,5.33081 q -6.93004,-11.638926 -21.67861,-11.994313 -8.70698,-0.177694 -15.37049,3.998103 -6.6635,4.1758 -6.8412,12.43855 -0.17769,12.3497 11.46124,16.79204 11.72777,4.44234 17.05857,6.48581 5.41966,1.95463 10.57277,4.35349 5.15311,2.39887 9.15122,5.86389 4.08695,3.37618 6.39696,8.1739 z" />
  <path
     inkscape:connector-curvature="0"
     id="path841"
     style="font-style:normal;font-variant:normal;font-weight:normal;font-stretch:normal;font-size:181.95817566px;line-height:1.25;font-family:Meera;-inkscape-font-specification:Meera;letter-spacing:0px;word-spacing:0px;fill:#aade87;fill-opacity:1;stroke:none;stroke-width:7.7607255"
     d="m 364.64691,179.61018 q -4.26464,10.03968 -12.3497,15.1928 -7.99621,5.06426 -16.5255,5.06426 -8.52929,0 -14.74856,-2.57655 -6.21927,-2.66541 -10.92815,-7.90737 -4.70888,-5.24196 -7.46313,-13.14932 -2.75425,-7.90736 -2.75425,-18.48012 0,-10.57277 2.75425,-18.48013 2.75425,-7.90736 9.77314,-15.81473 7.10775,-7.90736 21.85631,-7.90736 9.95084,0 18.03589,5.24196 8.08506,5.15311 12.3497,15.1928 l -11.017,3.19848 q -4.17579,-9.5066 -10.30622,-11.28354 -6.13043,-1.77693 -9.86199,-1.77693 -3.73157,0 -7.90736,2.04347 -4.08696,1.95463 -7.10775,5.95274 -3.02079,3.90925 -4.79772,9.86199 -1.68809,5.86388 -1.68809,13.77125 0,7.90736 1.68809,13.86009 1.77693,5.95273 6.30812,11.90547 4.53118,5.95273 14.30433,5.95273 9.41776,0 13.6824,-4.97542 4.26464,-4.97542 5.68619,-8.1739 z" />
  <path
     inkscape:connector-curvature="0"
     id="path843"
     style="font-style:normal;font-variant:normal;font-weight:normal;font-stretch:normal;font-size:181.95817566px;line-height:1.25;font-family:Meera;-inkscape-font-specification:Meera;letter-spacing:0px;word-spacing:0px;fill:#aade87;fill-opacity:1;stroke:none;stroke-width:7.7607255"
     d="m 388.72437,127.01289 q 7.28544,-11.46123 22.38939,-11.46123 12.97163,0 22.12284,8.44044 9.15122,8.3516 9.15122,25.58787 v 48.59918 h -11.63893 v -48.24379 q 0,-11.28354 -6.13042,-17.23627 -6.04158,-6.04158 -14.83741,-6.04158 -8.79583,0 -14.92626,6.04158 -6.13043,6.04158 -6.13043,17.23627 v 48.24379 H 377.08545 V 90.674567 h 11.63892 z" />
  <path
     inkscape:connector-curvature="0"
     id="path845"
     style="font-style:normal;font-variant:normal;font-weight:normal;font-stretch:normal;font-size:181.95817566px;line-height:1.25;font-family:Meera;-inkscape-font-specification:Meera;letter-spacing:0px;word-spacing:0px;fill:#aade87;fill-opacity:1;stroke:none;stroke-width:7.7607255"
     d="m 521.90567,159.79735 h -54.99614 q 0,21.50092 8.08505,25.49902 8.08506,3.99811 14.21548,3.99811 6.13043,0 11.46124,-3.28733 5.41965,-3.28733 8.26275,-9.6843 l 11.10584,3.28733 q -4.26464,10.03968 -12.43855,15.1928 -8.1739,5.06426 -17.59166,5.06426 -9.41775,0 -15.63703,-2.93194 -6.21927,-3.02079 -12.88278,-11.46123 -6.6635,-8.44045 -6.6635,-27.72019 0,-19.81283 9.15121,-31.00753 9.15122,-11.19469 24.34402,-11.19469 15.37049,0 24.43286,11.63893 9.15121,11.55008 9.15121,32.60676 z m -12.97162,-10.39507 q -1.5104,-11.63893 -6.84121,-17.32512 -5.3308,-5.77504 -13.5047,-5.77504 -13.14932,0 -16.79204,8.88468 -3.64272,8.79583 -4.1758,14.21548 z" />
  <path
     inkscape:connector-curvature="0"
     id="path847"
     style="font-style:normal;font-variant:normal;font-weight:normal;font-stretch:normal;font-size:181.95817566px;line-height:1.25;font-family:Meera;-inkscape-font-specification:Meera;letter-spacing:0px;word-spacing:0px;fill:#aade87;fill-opacity:1;stroke:none;stroke-width:7.7607255"
     d="m 598.31391,198.17915 h -10.92815 l -0.71078,-9.41775 q -4.79772,11.10584 -19.72398,11.10584 -15.28164,0 -24.87709,-11.37238 -9.50661,-11.46124 -9.50661,-30.74098 0,-19.81283 9.41776,-31.00753 9.41776,-11.19469 23.54439,-11.19469 5.86389,0 11.55008,2.6654 5.68619,2.57656 9.59545,7.55198 V 90.674567 h 11.63893 z M 586.67498,166.5497 v -16.96973 q 0,-10.57276 -6.04158,-16.88088 -5.95273,-6.39697 -13.6824,-6.39697 -9.95084,0 -16.17011,8.3516 -6.13043,8.26275 -6.13043,23.10016 0,14.30432 6.39697,22.83361 6.48581,8.52929 16.17011,8.52929 7.90736,0 13.6824,-6.04158 5.77504,-6.13042 5.77504,-16.5255 z" />
  <path
     inkscape:connector-curvature="0"
     id="path849"
     style="font-style:normal;font-variant:normal;font-weight:normal;font-stretch:normal;font-size:181.95817566px;line-height:1.25;font-family:Meera;-inkscape-font-specification:Meera;letter-spacing:0px;word-spacing:0px;fill:#aade87;fill-opacity:1;stroke:none;stroke-width:7.7607255"
     d="m 666.19283,188.49486 q -7.10774,11.37238 -22.38938,11.37238 -20.87899,0 -26.12095,-12.26085 -5.15311,-12.3497 -5.15311,-21.58977 v -48.59918 h 11.63892 V 165.217 q 0,11.1947 6.04158,17.23628 6.04158,6.04158 14.83741,6.04158 8.88468,0 15.01511,-6.04158 6.13042,-6.04158 6.13042,-17.23628 v -47.79956 h 11.63893 v 80.76171 h -10.92815 z" />
  <path
     inkscape:connector-curvature="0"
     id="path851"
     style="font-style:normal;font-variant:normal;font-weight:normal;font-stretch:normal;font-size:181.95817566px;line-height:1.25;font-family:Meera;-inkscape-font-specification:Meera;letter-spacing:0px;word-spacing:0px;fill:#aade87;fill-opacity:1;stroke:none;stroke-width:7.7607255"
     d="m 703.41963,182.18674 q 0,5.3308 4.44233,5.3308 h 8.79583 v 10.66161 h -11.28354 q -13.32701,0 -13.32701,-16.88088 V 90.852261 h 11.37239 z" />
  <path
     inkscape:connector-curvature="0"
     id="path853"
     style="font-style:normal;font-variant:normal;font-weight:normal;font-stretch:normal;font-size:181.95817566px;line-height:1.25;font-family:Meera;-inkscape-font-specification:Meera;letter-spacing:0px;word-spacing:0px;fill:#aade87;fill-opacity:1;stroke:none;stroke-width:7.7607255"
     d="m 788.97904,159.79735 h -54.99615 q 0,21.50092 8.08506,25.49902 8.08505,3.99811 14.21548,3.99811 6.13042,0 11.46123,-3.28733 5.41965,-3.28733 8.26275,-9.6843 l 11.10585,3.28733 q -4.26465,10.03968 -12.43855,15.1928 -8.1739,5.06426 -17.59166,5.06426 -9.41776,0 -15.63703,-2.93194 -6.21928,-3.02079 -12.88278,-11.46123 -6.66351,-8.44045 -6.66351,-27.72019 0,-19.81283 9.15122,-31.00753 9.15121,-11.19469 24.34401,-11.19469 15.37049,0 24.43286,11.63893 9.15122,11.55008 9.15122,32.60676 z m -12.97163,-10.39507 q -1.51039,-11.63893 -6.8412,-17.32512 -5.33081,-5.77504 -13.50471,-5.77504 -13.14932,0 -16.79204,8.88468 -3.64272,8.79583 -4.1758,14.21548 z" />
  <path
     inkscape:connector-curvature="0"
     id="path855"
     style="font-style:normal;font-variant:normal;font-weight:normal;font-stretch:normal;font-size:181.95817566px;line-height:1.25;font-family:Meera;-inkscape-font-specification:Meera;letter-spacing:0px;word-spacing:0px;fill:#aade87;fill-opacity:1;stroke:none;stroke-width:7.7607255"
     d="m 846.72942,120.08285 -6.39697,10.21737 q -4.26464,-3.28733 -8.88467,-3.28733 -4.62003,0 -7.81852,1.42155 -3.10963,1.42155 -6.8412,6.04158 -3.73156,4.53119 -3.73156,15.63703 v 48.0661 h -11.63893 v -80.76171 h 10.92815 l 0.71078,9.59545 q 3.10963,-5.06426 8.08505,-8.1739 4.97542,-3.19848 12.08316,-3.28733 7.10774,-0.0888 13.50471,4.53119 z" />
</svg>
